<svg width="180" height="180" viewBox="0 0 180 180" fill="none" xmlns="http://www.w3.org/2000/svg">
  <style>
    @media (prefers-color-scheme: light) {
      .background { fill: #10b981; }
      .foreground { fill: white; }
    }
    @media (prefers-color-scheme: dark) {
      .background { fill: #10b981; }
      .foreground { fill: white; }
    }
  </style>
  <rect class="background" width="180" height="180" rx="40" />
  <path class="foreground" d="M50 40h80c11 0 20 9 20 20v50c0 11-9 20-20 20H85l-20 18v-18c-11 0-20-9-20-20V60c0-11 9-20 20-20z" />
  <path fill="#10b981" d="M75 87.5l12.5 12.5 27.5-27.5c1.5-1.5 4-1.5 5.5 0s1.5 4 0 5.5l-30 30c-1.5 1.5-4 1.5-5.5 0l-15-15c-1.5-1.5-1.5-4 0-5.5s4-1.5 5.5 0z" />
</svg>